# xmcd CD database file
#
# Track frame offsets:
#	150
#	20172
#	31059
#	46825
#	64620
#	80156
#	95603
#	110715
#	126176
#	141731
#	154943
#	175846
#	194862
#	209154
#	222890
#
# Disc length: 3222 seconds
#
# Revision: 0
# Processed by: cddbd v1.4PL0 Copyright (c) Steve Scherf et al.
# Submitted via: CDex 1.40Release
#
DISCID=ee0c940f
DTITLE=Line Dance Heaven - Keep on Dancin'
DYEAR=1995
DGENRE=Country
TTITLE0=Scoots Boots - Doyle
TTITLE1=Chatta Hoochie - Jackson - McBride
TTITLE2=Dancin' Up and Down The Lane -Doyle - Kirk
TTITLE3=Line Dance Heaven - Doyle - Haynes
TTITLE4=Waiting Fro The Weekend - Doyle - Whiting
TTITLE5=A Natural Thing - Doyle - Whiting
TTITLE6=My kind Of Woman - Doyle
TTITLE7=I Surrender To You - Doyle - Haynes
TTITLE8=Bop - Buchan - Minson
TTITLE9=Memphis Breakdown - Shelton
TTITLE10=She - Doyle
TTITLE11=All Woman To Me - Doyle
TTITLE12=Keep On Dancin' - Tetau
TTITLE13=On A Love Trail - Doyle - Whiting
TTITLE14=Love Your Heart - Doyle - Eshman
EXTD=YEAR: 1995 ID3G: 2
EXTT0=
EXTT1=
EXTT2=
EXTT3=
EXTT4=
EXTT5=
EXTT6=
EXTT7=
EXTT8=
EXTT9=
EXTT10=
EXTT11=
EXTT12=
EXTT13=
EXTT14=
PLAYORDER=
